<?xml version="1.0" encoding="UTF-8" standalone="no"?>
<svg
   width="16"
   height="16"
   fill="currentColor"
   class="bi bi-git"
   viewBox="0 0 16 16"
   version="1.1"
   id="svg4"
   sodipodi:docname="git.svg"
   inkscape:version="1.4.2 (ebf0e940d0, 2025-05-08)"
   xmlns:inkscape="http://www.inkscape.org/namespaces/inkscape"
   xmlns:sodipodi="http://sodipodi.sourceforge.net/DTD/sodipodi-0.dtd"
   xmlns:xlink="http://www.w3.org/1999/xlink"
   xmlns="http://www.w3.org/2000/svg"
   xmlns:svg="http://www.w3.org/2000/svg">
  <sodipodi:namedview
     id="namedview4"
     pagecolor="#ffffff"
     bordercolor="#000000"
     borderopacity="0.25"
     inkscape:showpageshadow="2"
     inkscape:pageopacity="0.0"
     inkscape:pagecheckerboard="0"
     inkscape:deskcolor="#d1d1d1"
     inkscape:zoom="31.5625"
     inkscape:cx="7.9841584"
     inkscape:cy="7.5881188"
     inkscape:window-width="1366"
     inkscape:window-height="717"
     inkscape:window-x="0"
     inkscape:window-y="27"
     inkscape:window-maximized="1"
     inkscape:current-layer="svg4" />
  <defs
     id="defs4">
    <linearGradient
       id="linearGradient434">
      <stop
         offset="0"
         style="stop-color:#ff0000;stop-opacity:1;"
         id="stop430" />
      <stop
         offset="0.16"
         style="stop-color:#ffa500;stop-opacity:1;"
         id="stop431" />
      <stop
         offset="0.31999999"
         style="stop-color:#ffff00;stop-opacity:1;"
         id="stop432" />
      <stop
         offset="0.5"
         style="stop-color:#00ff00;stop-opacity:1;"
         id="stop435" />
      <stop
         offset="0.64999998"
         style="stop-color:#00ffff;stop-opacity:1;"
         id="stop436" />
      <stop
         offset="0.82999998"
         style="stop-color:#0000ff;stop-opacity:1;"
         id="stop433" />
      <stop
         offset="1"
         style="stop-color:#8000ff;stop-opacity:1;"
         id="stop434" />
    </linearGradient>
    <linearGradient
       id="a">
      <stop
         offset="0"
         style="stop-color:#5bcffa;stop-opacity:1;"
         id="stop1" />
      <stop
         offset="0.25"
         style="stop-color:#f5abb9;stop-opacity:1;"
         id="stop5" />
      <stop
         offset="0.5"
         style="stop-color:#ffffff;stop-opacity:1;"
         id="stop2" />
      <stop
         offset="0.75"
         style="stop-color:#f5abb9;stop-opacity:1;"
         id="stop3" />
      <stop
         offset="1"
         style="stop-color:#5bcffa;stop-opacity:1;"
         id="stop4" />
    </linearGradient>
    <linearGradient
       xlink:href="#a"
       id="b"
       x1="8.000001"
       x2="8.000001"
       y1="0.00019653348"
       y2="15.999807"
       gradientUnits="userSpaceOnUse" />
    <linearGradient
       inkscape:collect="always"
       xlink:href="#linearGradient434"
       id="linearGradient430"
       x1="0.0011395146"
       y1="8.0000019"
       x2="16.000858"
       y2="8.0000019"
       gradientUnits="userSpaceOnUse" />
  </defs>
  <path
     id="path4"
     style="fill:url(#linearGradient430);fill-opacity:1"
     d="M 15.698,7.287 8.712,0.302 a 1.03,1.03 0 0 0 -1.457,0 l -1.45,1.45 1.84,1.84 a 1.223,1.223 0 0 1 1.55,1.56 l 1.773,1.774 A 1.224,1.224 0 0 1 12.235,8.951 1.226,1.226 0 0 1 10.233,7.617 L 8.58,5.963 v 4.353 A 1.226,1.226 0 1 1 7.572,10.28 V 5.887 A 1.226,1.226 0 0 1 6.906,4.279 L 5.093,2.465 0.303,7.255 a 1.03,1.03 0 0 0 0,1.457 l 6.986,6.986 a 1.03,1.03 0 0 0 1.457,0 l 6.953,-6.953 a 1.03,1.03 0 0 0 0,-1.457" />
</svg>
